<svg id="Layer_1" data-name="Layer 1" xmlns="http://www.w3.org/2000/svg" viewBox="0 0 191.8 156.75"><defs><style>.cls-1{fill:#e6e6e6;}.cls-2{fill:#be362d;}.cls-3,.cls-5{fill:#fff;}.cls-3{stroke:#000;stroke-width:0.56px;}.cls-3,.cls-6{stroke-miterlimit:10;}.cls-4{fill:#f7931e;}.cls-6{fill:none;stroke:#23272c;stroke-width:2px;}</style></defs><path class="cls-1" d="M61.22,14.25c-33,4.67-40.11,32-41,38-4,27,11.5,28.79,11.5,34.9s-22.5,3.1-19.5,37.1c1.2,13.55,16.5,32.5,33.5,32.5h88.5c33,0,53.53-32.44,56-47.5,6.3-38.42-5.7-32.2-46-25-13.3,2.38-40.86-2.42-41.31-6-1-8,9.24-9.49,8-33C109.91,26.25,94.19,9.58,61.22,14.25Z"/><path class="cls-2" d="M22.32,74.68C18.13,73.41,12.57,76,9.54,77c-2.68.89-1.88-5.82,4.94-10.18C3.52,65.3-2.64,54.88,1.1,54.7c2.63-.14,8.33,3.58,12.66,2.39,4.08-1.12,5.75-6.64,6.76-6.49,1.66.25-1,9.5,3.07,13.14C28.17,67.84,24.4,75.3,22.32,74.68Z"/><line class="cls-3" x1="123.36" y1="71.02" x2="110.07" y2="106.15"/><line class="cls-3" x1="128.62" y1="72.99" x2="115.33" y2="108.11"/><line class="cls-3" x1="133.87" y1="74.95" x2="120.59" y2="110.08"/><line class="cls-3" x1="118.1" y1="69.06" x2="104.81" y2="104.19"/><line class="cls-3" x1="139.13" y1="76.92" x2="125.85" y2="112.04"/><rect class="cls-4" x="113.49" y="72.38" width="30.26" height="1.21" transform="translate(34.14 -40.78) rotate(20.72)"/><path class="cls-4" d="M114.26,110.93c-3.31-1.25-4.68-1.75-7-2.86a40.21,40.21,0,0,1-7-4.08A17.22,17.22,0,0,1,97,100.9a9.87,9.87,0,0,1-2-4.52,9.13,9.13,0,0,1,.65-4.89,14.74,14.74,0,0,1,2.3-3.71,25.82,25.82,0,0,1,2.83-2.89l.75-.64.68-.61,1.34-1.2A41.67,41.67,0,0,0,108.24,77a35.06,35.06,0,0,0,5.94-13.17l1.37.14a37.15,37.15,0,0,1-5.07,14.49,45.83,45.83,0,0,1-4.57,6.29l-2.61,2.77a23.14,23.14,0,0,0-2.16,2.69A10.69,10.69,0,0,0,99.76,93a4.51,4.51,0,0,0-.09,2.48c.38,1.45,1.84,2.84,3.69,4a34.35,34.35,0,0,0,6.28,2.82c2.26.81,3.7,1.38,6.93,2.6Z"/><path class="cls-4" d="M114.26,110.93c3.32,1.26,4.67,1.79,7.18,2.51a40.42,40.42,0,0,0,7.95,1.59,17.3,17.3,0,0,0,4.45-.2,9.87,9.87,0,0,0,4.52-2,9.23,9.23,0,0,0,2.75-4.1,14.81,14.81,0,0,0,.73-4.3,26.86,26.86,0,0,0-.21-4l-.14-1-.11-.89-.21-1.79a42.48,42.48,0,0,1,.07-7.22,35.32,35.32,0,0,1,4.26-13.81l-1.11-.79a36.93,36.93,0,0,0-5.79,14.21,44.5,44.5,0,0,0-.74,7.74l.12,3.81a21.75,21.75,0,0,1-.16,3.45,10.79,10.79,0,0,1-.81,3,4.65,4.65,0,0,1-1.58,1.92c-1.24.83-3.25.91-5.39.52a35.81,35.81,0,0,1-6.57-2c-2.22-.89-3.68-1.42-6.9-2.64Z"/><circle class="cls-4" cx="146.53" cy="76.92" r="3.02"/><circle class="cls-4" cx="112.58" cy="64.08" r="3.02"/><path class="cls-5" d="M61.17,119.7c.69-10.73,6.44-18.27,30-15.46,24.42,2.91,49,.18,54.45-1.79,11.2-4,14.11,13-10.08,28.23S59.6,144.12,61.17,119.7Z"/><rect class="cls-4" x="57.98" y="8.23" width="57.86" height="3.44" rx="1.72" transform="translate(3.53 -16.52) rotate(11.08)"/><path class="cls-6" d="M35.86,50.2C37,43.27,48.35,41,48,51.59"/></svg>