<svg id="Layer_1" data-name="Layer 1" xmlns="http://www.w3.org/2000/svg" viewBox="0 0 191.8 156.75"><defs><style>.cls-1{fill:#e80803;}.cls-2{fill:#23272c;}</style></defs><path class="cls-1" d="M170.7,93.76c5.34-3.84,10-8.75,12.23-14.66a22.41,22.41,0,0,0,1.51-9.24A24.56,24.56,0,0,0,182,60.65a28.86,28.86,0,0,0-5.72-7.88A52.12,52.12,0,0,1,172.44,49a21.55,21.55,0,0,1-3.15-4.75,14.87,14.87,0,0,1-.93-11.36A10,10,0,0,1,171.84,28a7.24,7.24,0,0,1,2.81-1.27,6,6,0,0,1,3,.17l-.26,1.64a6.91,6.91,0,0,0-4,1.47,7.44,7.44,0,0,0-2.35,3.7,11.81,11.81,0,0,0,1.27,9,18.1,18.1,0,0,0,2.85,3.82c1.12,1.19,2.34,2.09,3.81,3.38a32.79,32.79,0,0,1,6.93,8.75,28.84,28.84,0,0,1,3.36,10.83,27,27,0,0,1-1.36,11.39,29.71,29.71,0,0,1-2.37,5.23,33.14,33.14,0,0,1-3.2,4.69,47.88,47.88,0,0,1-8,7.77Z"/><path class="cls-2" d="M61.22,14.25c-33,4.67-40.11,32-41,38-4,27,11.5,28.79,11.5,34.9s-22.5,3.1-19.5,37.1c1.2,13.55,16.5,32.5,33.5,32.5h88.5c33,0,53.53-32.44,56-47.5,6.3-38.42-5.7-32.2-46-25-13.3,2.38-40.86-2.42-41.31-6-1-8,9.24-9.49,8-33C109.91,26.25,94.19,9.58,61.22,14.25Z"/><path class="cls-1" d="M22.32,74.68C18.13,73.41,12.57,76,9.54,77c-2.68.89-1.88-5.82,4.94-10.18C3.52,65.3-2.64,54.88,1.1,54.7c2.63-.14,8.33,3.58,12.66,2.39,4.08-1.12,5.75-6.64,6.76-6.49,1.66.25-1,9.5,3.07,13.14C28.17,67.84,24.4,75.3,22.32,74.68Z"/><path class="cls-1" d="M48,51.59c-1.55,4.23-5.38,6.71-8.56,5.54S35,51.89,36.33,47.79l10.94-4.26A8.67,8.67,0,0,1,48,51.59Z"/><path class="cls-1" d="M61.17,119.7c.69-10.73,6.44-18.27,30-15.46,24.42,2.91,49,.18,54.45-1.79,11.2-4,14.11,13-10.08,28.23S59.6,144.12,61.17,119.7Z"/><path class="cls-1" d="M73.44,17.89C85.33,12.71,82.81.74,83.68,0S97.4,12.86,88.54,23.78C82.47,31.27,67.33,20.56,73.44,17.89Z"/><path class="cls-1" d="M174.5,32.74l.88-4.51a.35.35,0,0,0-.06-.28l-2.72-3.71a.36.36,0,0,1,.35-.57l12,1.94a.36.36,0,0,1,.14.65l-10,6.85A.36.36,0,0,1,174.5,32.74Z"/><path class="cls-1" d="M150.31,27.46l-1.62-2a.21.21,0,0,0-.15-.07L146,25.29a.2.2,0,0,1-.12-.35l5.05-4.45a.2.2,0,0,1,.33.16l-.6,6.71A.2.2,0,0,1,150.31,27.46Z"/><path class="cls-1" d="M142.42,23.71l-1.93-1.66a.23.23,0,0,0-.16,0l-2.52.3a.2.2,0,0,1-.18-.32l4.2-5.26a.2.2,0,0,1,.35.11l.57,6.7A.2.2,0,0,1,142.42,23.71Z"/><path class="cls-1" d="M153.7,29.41l2.48.58a.19.19,0,0,1,.13.1l1.25,2.21a.2.2,0,0,0,.37,0l1.75-6.5a.2.2,0,0,0-.3-.22l-5.74,3.52A.2.2,0,0,0,153.7,29.41Z"/><path class="cls-1" d="M149.72,24.81c-4.54,9-8.84,18.13-13,27.34-1.06,2.29-2.08,4.6-3.1,6.91l-1.53,3.46a21.69,21.69,0,0,0-1.39,3.54c-.31,1.25-.41,2.62-.79,3.84a20.53,20.53,0,0,1-1.59,3.43c-1.15,2.24-2.39,4.45-3.61,6.65-2.49,4.4-5.13,8.71-7.66,13.08s-5,8.79-7.2,13.32-4.47,9-6.54,13.64-4.09,9.24-5.85,14l-6-3c2.8-4.24,5.34-8.61,7.81-13s4.82-8.86,7.12-13.36,4.45-9,6.46-13.68,3.93-9.32,6-13.93c1-2.29,2.09-4.59,3.21-6.85a20.16,20.16,0,0,1,1.83-3.31c.76-1,1.8-1.92,2.62-2.92a21.15,21.15,0,0,0,2-3.21l1.88-3.29c1.26-2.19,2.51-4.38,3.73-6.58,5-8.8,9.76-17.68,14.32-26.67Z"/><path class="cls-1" d="M128.92,64.41A44.12,44.12,0,0,1,122.49,60,28,28,0,0,1,117,54a14.35,14.35,0,0,1-1.84-4.08,9.11,9.11,0,0,1,.07-4.91,9.68,9.68,0,0,1,2.46-4,16.29,16.29,0,0,1,3.34-2.49,26.14,26.14,0,0,1,3.53-1.65c1.23-.48,2.28-.8,3.31-1.27A22.23,22.23,0,0,0,133.62,32,21.14,21.14,0,0,0,138,26.79a19.85,19.85,0,0,0,2.39-6.43l1.36.1A22.43,22.43,0,0,1,135.48,34a25.9,25.9,0,0,1-6.09,4.62c-1.12.64-2.34,1.14-3.3,1.64A23.68,23.68,0,0,0,123.24,42c-1.75,1.23-3.11,2.82-3.33,4.27s.41,3,1.66,4.54a22.14,22.14,0,0,0,4.74,4.17,37,37,0,0,0,5.79,3.18Z"/><path class="cls-1" d="M132.1,58.12a37.14,37.14,0,0,0,6,2.78,22.7,22.7,0,0,0,6.16,1.35c2,.09,3.68-.31,4.65-1.36s1.51-3.07,1.46-5.21a22.42,22.42,0,0,0-.31-3.32c-.16-1.07-.48-2.35-.63-3.62a25.48,25.48,0,0,1,.12-7.65,22.43,22.43,0,0,1,7.19-13l.89,1a19.41,19.41,0,0,0-3.76,5.74,20.53,20.53,0,0,0-1.65,6.6,22.66,22.66,0,0,0,.51,6.72c.23,1.11.6,2.14.94,3.42a27.18,27.18,0,0,1,.76,3.82,15.69,15.69,0,0,1,0,4.16,9.72,9.72,0,0,1-1.74,4.35,9.13,9.13,0,0,1-3.92,3,13.71,13.71,0,0,1-4.37.93,27.5,27.5,0,0,1-8-.86,43.47,43.47,0,0,1-7.41-2.53Z"/></svg>