<svg id="Layer_1" data-name="Layer 1" xmlns="http://www.w3.org/2000/svg" xmlns:xlink="http://www.w3.org/1999/xlink" viewBox="0 0 191.8 148.55"><defs><style>.cls-1{fill:none;}.cls-2{fill:#fbc33e;}.cls-3{fill:#be362d;}.cls-4{fill:#23272c;}.cls-5{fill:#e80803;}.cls-6{fill:#ef912b;}.cls-7{clip-path:url(#clip-path);}.cls-8{fill:#ffdcc0;}.cls-9{fill:#f9b52d;}</style><clipPath id="clip-path"><path class="cls-1" d="M95.9,100.11C122.54,73.67,146.59,41.48,155.69,48c6.44,4.6-29.48,50.77-29.48,50.77l-18.16,2Z"/></clipPath></defs><path class="cls-2" d="M61.22,6.05c-33,4.67-40.11,32-41,38-4,27,11.5,28.79,11.5,34.9s-22.5,3.1-19.5,37.1c1.2,13.55,16.5,32.5,33.5,32.5h88.5c33,0,53.53-32.44,56-47.5,6.3-38.42-5.7-32.2-46-25-13.3,2.38-40.86-2.42-41.31-6-1-8,9.24-9.5,8-33C109.91,18.05,94.19,1.38,61.22,6.05Z"/><path class="cls-3" d="M22.32,66.47c-4.19-1.26-9.75,1.29-12.78,2.3-2.68.88-1.88-5.82,4.94-10.18C3.52,57.1-2.64,46.68,1.1,46.5c2.63-.14,8.33,3.58,12.66,2.39,4.08-1.12,5.75-6.64,6.76-6.5,1.66.26-1,9.51,3.07,13.15C28.17,59.64,24.4,67.1,22.32,66.47Z"/><ellipse class="cls-4" cx="42.23" cy="41.28" rx="8.15" ry="6.13" transform="translate(-11.06 66.73) rotate(-69.88)"/><path class="cls-5" d="M31.56,77.89,31.46,80c1.95,1.32,35.38,5,51,1,16.13-4.14,20.27-7.72,21.33-9.89s1.26-5.2,0-6.11S86.49,74.39,68.68,75.17,31.56,77.89,31.56,77.89Z"/><path class="cls-6" d="M95.9,100.11C122.54,73.67,146.59,41.48,155.69,48c6.44,4.6-29.48,50.77-29.48,50.77l-18.16,2Z"/><g class="cls-7"><path class="cls-8" d="M127.88,61.79a3.75,3.75,0,0,1,3.6.49,30.29,30.29,0,0,1,5.21,4.19,19.4,19.4,0,0,1,2.17,2.65.54.54,0,0,1-.15.74.52.52,0,0,1-.45.06h0a26.21,26.21,0,0,1-3.14-1.22c-1-.46-2-1-2.92-1.48s-1.88-1.07-2.79-1.64a3.87,3.87,0,0,1-2-2.92h0A.76.76,0,0,1,127.88,61.79Z"/><path class="cls-8" d="M132.47,54.25a3.75,3.75,0,0,1,3.6.48,32.63,32.63,0,0,1,2.71,2,26.61,26.61,0,0,1,2.49,2.25,17.63,17.63,0,0,1,2.17,2.65.52.52,0,0,1-.15.73.54.54,0,0,1-.44.07h0a27.28,27.28,0,0,1-3.14-1.22c-1-.47-2-1-2.93-1.49S134.89,58.61,134,58a3.87,3.87,0,0,1-2-2.93h0A.75.75,0,0,1,132.47,54.25Z"/><path class="cls-8" d="M121.67,67.76a3.75,3.75,0,0,1,3.6.49,30.61,30.61,0,0,1,2.72,2,26.34,26.34,0,0,1,2.49,2.25,18.94,18.94,0,0,1,2.17,2.65.54.54,0,0,1-.6.8h0a26.21,26.21,0,0,1-3.14-1.22c-1-.46-2-1-2.92-1.48s-1.88-1.07-2.79-1.64a3.84,3.84,0,0,1-2-2.92h0A.76.76,0,0,1,121.67,67.76Z"/><path class="cls-8" d="M115.55,73.72a3.75,3.75,0,0,1,3.6.48,31.2,31.2,0,0,1,2.72,2,29.39,29.39,0,0,1,2.49,2.25,18.81,18.81,0,0,1,2.17,2.65.53.53,0,0,1-.15.73.54.54,0,0,1-.44.07h0a28,28,0,0,1-3.14-1.22c-1-.47-2-1-2.92-1.49s-1.88-1.06-2.79-1.63a3.91,3.91,0,0,1-2-2.93h0A.75.75,0,0,1,115.55,73.72Z"/><path class="cls-8" d="M108.7,79.82a3.75,3.75,0,0,1,3.6.48c.94.6,1.84,1.26,2.72,2a27.81,27.81,0,0,1,2.48,2.25,18.87,18.87,0,0,1,2.18,2.65.52.52,0,0,1-.16.73.53.53,0,0,1-.44.07h0a27.28,27.28,0,0,1-3.14-1.22c-1-.47-2-1-2.92-1.49s-1.88-1.06-2.79-1.63a3.86,3.86,0,0,1-2-2.93h0A.75.75,0,0,1,108.7,79.82Z"/><path class="cls-8" d="M101.79,85.93a3.75,3.75,0,0,1,3.6.48,32.79,32.79,0,0,1,2.72,2,29.39,29.39,0,0,1,2.49,2.25,18.81,18.81,0,0,1,2.17,2.65.54.54,0,0,1-.16.74.56.56,0,0,1-.44.06h0A26.21,26.21,0,0,1,109,92.84c-1-.46-2-1-2.92-1.48s-1.88-1.07-2.79-1.64a3.88,3.88,0,0,1-2-2.93h0A.75.75,0,0,1,101.79,85.93Z"/></g><path class="cls-5" d="M31.4,77.86c-5.47,6.59-3.68,9.68.75,11.5s5.76,9.37,5.76,9.37S50.63,93,44.2,86.08,31.4,77.86,31.4,77.86Z"/><path class="cls-9" d="M61.17,111.5c.69-10.73,6.44-18.27,30-15.46,24.42,2.91,49,.18,54.45-1.79,11.2-4,14.11,13-10.08,28.23S59.6,135.92,61.17,111.5Z"/><path d="M44.62,11.1c7.18,2.71,57.37,17,66.09,23.59s10-4-.61-14C95.62,6.87,79.39-.25,59.52,0,39.94.26,39.91,9.33,44.62,11.1Z"/><path d="M22.75,47.49a3.88,3.88,0,0,1,1.82-2.35,1.83,1.83,0,0,1,1.79.31,4.78,4.78,0,0,1,1.06,1.21A19.83,19.83,0,0,1,29.58,52c.23.9.42,1.89.58,2.7a4.11,4.11,0,0,0,1.05,2,2.26,2.26,0,0,0,2,.67,2.35,2.35,0,0,0,1.62-1.78,2.75,2.75,0,0,1-.17,1.46,2.41,2.41,0,0,1-1.11,1.19,3.16,3.16,0,0,1-3.25-.37,5.07,5.07,0,0,1-1.87-2.66c-.29-1-.49-1.83-.71-2.74a32.79,32.79,0,0,0-1.46-5.18c-.37-.77-.83-1.45-1.42-1.34a2.24,2.24,0,0,0-1.06.56A11.17,11.17,0,0,0,22.75,47.49Z"/></svg>