<svg id="Layer_1" data-name="Layer 1" xmlns="http://www.w3.org/2000/svg" viewBox="0 0 191.8 143.29"><defs><style>.cls-1{fill:#fbc33e;}.cls-2{fill:#be362d;}.cls-3{fill:#23272c;}.cls-4{fill:#f9b52d;}</style></defs><path class="cls-1" d="M61.22.79c-33,4.68-40.11,32-41,38-4,27,11.5,28.79,11.5,34.9s-22.5,3.1-19.5,37.1c1.2,13.55,16.5,32.5,33.5,32.5h88.5c33,0,53.53-32.43,56-47.5,6.3-38.42-5.7-32.2-46-25-13.3,2.38-40.86-2.42-41.31-6-1-8,9.24-9.49,8-33C109.91,12.79,94.19-3.88,61.22.79Z"/><path class="cls-2" d="M22.32,61.22C18.13,60,12.57,62.51,9.54,63.51c-2.68.89-1.88-5.82,4.94-10.18C3.52,51.84-2.64,41.43,1.1,41.24c2.63-.14,8.33,3.58,12.66,2.39,4.08-1.12,5.75-6.64,6.76-6.49,1.66.25-1,9.5,3.07,13.14C28.17,54.38,24.4,61.84,22.32,61.22Z"/><ellipse class="cls-3" cx="42.23" cy="36.03" rx="8.15" ry="6.13" transform="translate(-6.13 63.28) rotate(-69.88)"/><path class="cls-4" d="M61.17,106.24c.69-10.73,6.44-18.27,30-15.46,24.42,2.92,49,.19,54.45-1.79,11.2-4,14.11,13-10.08,28.23S59.6,130.67,61.17,106.24Z"/></svg>