<svg id="Layer_1" data-name="Layer 1" xmlns="http://www.w3.org/2000/svg" viewBox="0 0 218.48 162.47"><defs><style>.cls-1{fill:#e6e6e6;}.cls-2{fill:#e80803;}.cls-3{fill:#23272c;}.cls-4{fill:#93278f;}.cls-5{fill:#b732b7;}.cls-6{fill:#0071bc;}.cls-7{fill:#39b54a;}.cls-8{fill:#fcee21;}.cls-9{fill:#f7931e;}.cls-10{fill:#b3b3b3;}</style></defs><path class="cls-1" d="M61.22,20c-33,4.67-40.11,32-41,38-4,27,11.5,28.79,11.5,34.89S9.22,96,12.22,130c1.2,13.55,16.5,32.5,33.5,32.5h88.5c33,0,53.53-32.44,56-47.5,6.3-38.42-5.7-32.21-46-25-13.3,2.38-40.86-2.42-41.31-6-1-8,9.24-9.5,8-33C109.91,32,94.19,15.3,61.22,20Z"/><path class="cls-2" d="M22.32,80.39c-4.19-1.26-9.75,1.29-12.78,2.29-2.68.89-1.88-5.82,4.94-10.18C3.52,71-2.64,60.6,1.1,60.41c2.63-.13,8.33,3.58,12.66,2.4,4.08-1.13,5.75-6.64,6.76-6.5,1.66.25-1,9.51,3.07,13.15C28.17,73.56,24.4,81,22.32,80.39Z"/><ellipse class="cls-3" cx="42.23" cy="55.2" rx="8.15" ry="6.13" transform="translate(-24.13 75.86) rotate(-69.88)"/><path class="cls-4" d="M124.66,93.7v0Z"/><path class="cls-5" d="M114.8,98.86c-10.5,3-19.25-2.36-21.58-9.69-2.07-6.52,1.4-14.4,5.89-22.74,0,0,5.9-1.21,10.3,2.17,5.83,4.49,3.68,10.32.77,15.56C107.45,89.09,108.87,97.23,114.8,98.86Z"/><path class="cls-6" d="M100.13,78.19c-5.11,3.26-8.19,11-5.34,19C84.13,95.94,77.1,83.13,84.4,70.67c6.16-10.53,18.06-5.52,19.73-21.87,0,0,12.1,3.12,12.39,11.22C116.83,68.86,108.86,72.65,100.13,78.19Z"/><path class="cls-7" d="M106.68,58c-8.25,2.71-17,9.25-15.14,20.51-9.87-4.74-12.53-20.18-1.36-28,10.25-7.15,16-9.34,14.68-22.75,0,0,14.43,3.74,15.81,13.15C121.64,47.56,118.89,54,106.68,58Z"/><path class="cls-8" d="M109.73,39.52c-7,3.89-19.37,10.15-20.14,20.09-10.07-8.52-3.87-19.23-1-22.89,7.1-9,12.19-12.73,4.26-20.54,0,0,11.67-6.9,20.05,1.88C119,24.46,117,35.5,109.73,39.52Z"/><path class="cls-9" d="M73.33,11.8c8.3,9.14,8.38,11.48,4.5,22.24-5.28,14.63,2.46,24.5,2.46,24.5S75.71,46.31,93.07,37.28c15.22-7.92,11.4-23.17,4.6-28.3C87.77,1.53,73.33,11.8,73.33,11.8Z"/><path class="cls-2" d="M59.68,20.21c4.84.2,8.81,2.82,9.49,8.82s-2.61,10.56-13,15.31c0,0,11.88,6.63,26.61-7.57,8.25-8,9.26-26.54-5.32-29.62C61.42,3.77,59.68,20.21,59.68,20.21Z"/><path class="cls-6" d="M52.65,20a31.87,31.87,0,0,1-5.44,15.66c-3.09,1.8-5.16.63-6.07-2.39,0-.09-.11-.18-.16-.29h0a32,32,0,0,0,6.4-18.17C49.78,15.57,51.84,16.77,52.65,20Z"/><path class="cls-7" d="M47.38,14.76h0A32,32,0,0,1,41,32.94c-1.89-.84-3.39-3-2.89-6.55h0a32.17,32.17,0,0,0,4.77-15.82A6.94,6.94,0,0,1,47.38,14.76Z"/><path class="cls-8" d="M42.85,10.55h0a32.17,32.17,0,0,1-4.77,15.82,10.43,10.43,0,0,1-3.32-8.66A31.78,31.78,0,0,0,38.4,6.59C40.3,6.83,41.9,8,42.85,10.55Z"/><path class="cls-9" d="M38.39,6.58h0a31.78,31.78,0,0,1-3.63,11.13c-1.81-1.58-2.71-4-2.54-7.21a32.3,32.3,0,0,0,1.51-7.8A6.4,6.4,0,0,1,38.39,6.58Z"/><path class="cls-2" d="M33.74,2.7h0a32.3,32.3,0,0,1-1.51,7.8C30.1,8.74,29,2.09,29.49.07,29.59-.31,31.4.86,33.74,2.7Z"/><path class="cls-5" d="M47.21,35.63A31.87,31.87,0,0,0,52.65,20a5.24,5.24,0,0,1,3.15,3.47C57,29.36,53.23,36.48,47.21,35.63Z"/><path class="cls-9" d="M185.71,112.24c-2.83-5.41-3.2-8.81-3.28-14.43A22.86,22.86,0,0,0,182,86.93c-1.78-6.55-7.82-10.31-15-8.19-.26-2.87.76-5.52,4.16-7.42h0c8.95-3.23,16.8,2.2,19,10.45C192.37,89.58,190.22,99.94,185.71,112.24Z"/><path class="cls-8" d="M209.42,138.81A18.2,18.2,0,0,1,196,140.38c-6.75-1.94-13.2-9.37-10.66-25.58.14-.89.26-1.73.35-2.53,0,0,0,0,0,0,4.51-12.3,6.66-22.66,4.54-30.48-2.24-8.25-10.09-13.68-19-10.45,1.65-4.82,5.67-7.51,13.13-5.67h0C196.59,68,204,80.08,195.52,99.6c-8.35,19.19-5.08,29.87.71,34.54C201.36,138.28,209.06,138.79,209.42,138.81Z"/><path class="cls-7" d="M215.06,133.23c-.18,3.39-2.25,5.14-5.63,5.58h0c-.36,0-8.06-.53-13.19-4.67-5.79-4.67-9.06-15.35-.71-34.54,8.5-19.52,1.07-31.58-11.17-34,2.68-1.19,5.2-1.2,8.58,0,21.94,7.8,9.45,34.28,6.6,46.63C196.23,123.3,202.34,133.23,215.06,133.23Z"/><path class="cls-6" d="M215.06,133.23c-12.72,0-18.83-9.93-15.53-21,2.81,12.68,15.07,14.52,18,10C219.55,123.75,218.24,131.61,215.06,133.23Z"/><path class="cls-5" d="M217.49,122.26c-2.89,4.53-15.15,2.69-18-10C208.11,108.65,218.27,109.69,217.49,122.26Z"/><path class="cls-2" d="M182.43,97.81c-2.46.6-7.3.6-10.11-1.24-6.81-4.46-7.67-10-5.28-17.83,7.13-2.12,13.17,1.64,15,8.19A22.86,22.86,0,0,1,182.43,97.81Z"/><polygon class="cls-9" points="160.43 38.36 151.63 45.37 151.56 34.12 153.63 36.51 156.55 35.07 157.27 38.25 160.43 38.36"/><path class="cls-6" d="M144.45,70.84A5.3,5.3,0,0,1,146,69.07a3.92,3.92,0,0,1,2.61-.65,3.58,3.58,0,0,1,2.53,1.44,3.36,3.36,0,0,1,.52,1.33c.11.43,0,1-.9,1.37-.93-.31-1.16-.47-1.25-.71l-.39-.57a2.32,2.32,0,0,0-.91-.82c-.84-.38-2.05.15-3.15.93Z"/><path class="cls-6" d="M135.47,66.79c-.09-1.35-.43-2.62-1.25-3a2.22,2.22,0,0,0-1.21-.2l-.69,0c-.25.08-.51,0-1.34-.53-.25-.94.1-1.37.51-1.56a3.28,3.28,0,0,1,1.36-.42,3.57,3.57,0,0,1,2.71,1.06,4,4,0,0,1,1.13,2.44,5.3,5.3,0,0,1-.38,2.34Z"/><path class="cls-2" d="M162.1,60.62c-8.65,4.49-20.54,5.79-20.54,5.79s-6.45-10.07-8.37-19.62c-2.68-13.34,15.08-19,20.07-4.84C167.42,36.94,174.16,54.33,162.1,60.62Z"/><path class="cls-5" d="M136.13,58.89a1,1,0,0,1,1.24.25,1.73,1.73,0,0,1,.51,1.36,1.79,1.79,0,0,1-.84,1.33,1.84,1.84,0,0,1-1.61.19A2.31,2.31,0,0,1,134,59.51c.12-.85.26-1.52.32-2.29a9.35,9.35,0,0,0,0-2.18c-.1-.69-.35-1.27-.87-1.45a4.57,4.57,0,0,0-2.05,0,9.32,9.32,0,0,1-2.47.17,5.51,5.51,0,0,1-4.15-3.2,4.63,4.63,0,0,1,1.76-5.66,4.25,4.25,0,0,1,3.42-.44,4.52,4.52,0,0,1,2.59,1.91,3.31,3.31,0,0,1,.28,3.16,3.14,3.14,0,0,1-2.09,1.66,3.76,3.76,0,0,0,.56-2,1.6,1.6,0,0,0-.75-1.19,2.18,2.18,0,0,0-2.33-.28,2.72,2.72,0,0,0-.94,1,2.64,2.64,0,0,0-.62,1.47,2.17,2.17,0,0,0,.69,1.68,3.56,3.56,0,0,0,1.76.89,6.07,6.07,0,0,0,2.15-.07,5.22,5.22,0,0,1,2.54,0,2.66,2.66,0,0,1,1.58,2.21,10.19,10.19,0,0,1,.06,2.46c-.06.77-.21,1.62-.3,2.3a1.12,1.12,0,0,0,.71,1.21.9.9,0,0,0,1.11-.5,1,1,0,0,0-.81-1.41Z"/><path class="cls-5" d="M150.8,65.93a1,1,0,0,0-1.61.26.91.91,0,0,0,.31,1.18,1.11,1.11,0,0,0,1.38-.21c.48-.49,1-1.15,1.62-1.67a9.37,9.37,0,0,1,1.94-1.5,2.66,2.66,0,0,1,2.71-.16,5.28,5.28,0,0,1,1.63,2,6.14,6.14,0,0,0,1.29,1.71,3.61,3.61,0,0,0,1.8.82,2.19,2.19,0,0,0,1.74-.52,2.62,2.62,0,0,0,.76-1.41,2.75,2.75,0,0,0,.15-1.32,2.19,2.19,0,0,0-1.68-1.65,1.67,1.67,0,0,0-1.4.16,3.68,3.68,0,0,0-1.23,1.72,3.1,3.1,0,0,1,0-2.67,3.33,3.33,0,0,1,2.64-1.76,4.52,4.52,0,0,1,3.11.82,4.28,4.28,0,0,1,1.81,2.93,4.56,4.56,0,0,1-.82,3.14,4.47,4.47,0,0,1-2.49,1.78,5.44,5.44,0,0,1-5.09-1.22,9.48,9.48,0,0,1-1.42-2,4.39,4.39,0,0,0-1.28-1.59,1.6,1.6,0,0,0-1.67.23,9.75,9.75,0,0,0-1.7,1.36c-.56.54-1,1.06-1.58,1.7a2.32,2.32,0,0,1-2.86.44,1.88,1.88,0,0,1-.87-1.37,1.81,1.81,0,0,1,.51-1.49,1.71,1.71,0,0,1,1.38-.46,1,1,0,0,1,1,.81Z"/><path class="cls-6" d="M123.58,111.92c-.68,1.44-1.37,2.87-2.09,4.3s-1.44,2.83-2.28,4.2c-1.65,2.74-3.72,5.27-5.56,7.92a45.54,45.54,0,0,0-2.58,4.06,2.52,2.52,0,0,0-.44,1.11,8.26,8.26,0,0,0,0,1.32,2.66,2.66,0,0,1-.24,1.2c-.15.37-.46.66-1.85.44l-.77-.37c-1-.94-1-1.37-.82-1.72a2.68,2.68,0,0,1,.78-.94,8.49,8.49,0,0,0,1-.84,2.6,2.6,0,0,0,.6-1c.58-1.49,1.1-3,1.54-4.55.9-3.11,1.57-6.31,2.67-9.31.54-1.51,1.17-3,1.84-4.41s1.34-2.89,2-4.32c1.38-2.87,2.88-5.67,4.38-8.49,2.26-4.18,4.59-8.33,6.77-12.55L133,90c-1.92,4.34-3.7,8.76-5.53,13.14C126.18,106.12,124.94,109.05,123.58,111.92Z"/><path class="cls-8" d="M140.11,77.49a16.13,16.13,0,0,0-2.72,3.29L133,78.67a16.25,16.25,0,0,0,.86-4.18,11.79,11.79,0,0,1,1.21-4.7,4,4,0,0,1,1.69-1.85,6.19,6.19,0,0,1,1.58-.55,9.65,9.65,0,0,1,2.39-.19l.77.37a9.8,9.8,0,0,1,1.35,2,6.57,6.57,0,0,1,.56,1.58,3.87,3.87,0,0,1-.38,2.47A11.76,11.76,0,0,1,140.11,77.49Z"/><rect class="cls-10" x="138.06" y="61.38" width="6.07" height="12" rx="0.8" transform="translate(19.42 165.58) rotate(-64.43)"/><path class="cls-7" d="M135,85.63c-.7,1.46-1.36,2.93-2,4.41l-4.41-2.11c.74-1.44,1.46-2.88,2.16-4.34s1.36-2.88,2-4.32a6.25,6.25,0,0,0,.24-.6l4.41,2.11a6.12,6.12,0,0,0-.31.56C136.37,82.76,135.66,84.19,135,85.63Z"/><path class="cls-10" d="M61.17,125.42c.69-10.73,6.44-18.27,30-15.46,24.42,2.91,49,.18,54.45-1.79,11.2-4,14.11,13-10.08,28.23S59.6,149.84,61.17,125.42Z"/></svg>