<svg id="Layer_1" data-name="Layer 1" xmlns="http://www.w3.org/2000/svg" viewBox="0 0 191.8 181.69"><defs><style>.cls-1{fill:#006837;}.cls-2{fill:#be362d;}.cls-3{fill:#23272c;}.cls-4{fill:#42210b;}.cls-5{fill:#754c24;}.cls-6{fill:#009245;}</style></defs><path class="cls-1" d="M61.22,39.19c-33,4.67-40.11,32-41,38-4,27,11.5,28.79,11.5,34.9s-22.5,3.1-19.5,37.1c1.2,13.55,16.5,32.5,33.5,32.5h88.5c33,0,53.53-32.44,56-47.5,6.3-38.42-5.7-32.2-46-25-13.3,2.38-40.86-2.42-41.31-6-1-8,9.24-9.49,8-33C109.91,51.19,94.19,34.52,61.22,39.19Z"/><path class="cls-2" d="M22.32,99.62c-4.19-1.27-9.75,1.28-12.78,2.29-2.68.89-1.88-5.82,4.94-10.18C3.52,90.24-2.64,79.82,1.1,79.64,3.73,79.5,9.43,83.22,13.76,82c4.08-1.12,5.75-6.64,6.76-6.49,1.66.25-1,9.5,3.07,13.14C28.17,92.78,24.4,100.24,22.32,99.62Z"/><rect class="cls-3" x="19.17" y="56.38" width="106.6" height="5.62" rx="2.46" transform="matrix(0.97, 0.25, -0.25, 0.97, 17.46, -16.5)"/><path class="cls-3" d="M114,70.14,30.89,48.24c11.5-19.56,35.51-40.3,60-47,22.15-6.06,47,11.64,42.79,16.52-2.81,3.25-9.76-3.41-14.3,4.5C112.22,34.73,112,54.3,114,70.14Z"/><ellipse class="cls-3" cx="42.23" cy="74.42" rx="8.15" ry="6.13" transform="translate(-42.18 88.47) rotate(-69.88)"/><path class="cls-4" d="M145.47,66.5a49.3,49.3,0,0,1-1.65,7.6c-.72,2.45-1.56,4.84-2.5,7.19s-2,4.63-3.07,6.92S136.09,92.76,135,95c-4.4,9.07-9.17,18-13.91,26.89s-9.37,17.87-13.68,27c-2.15,4.55-4.26,9.14-6.23,13.78-1.55,3.64-3.06,7.3-4.43,11a3,3,0,0,1-4.14,1.66h0a3,3,0,0,1-1.3-4.26c2-3.41,3.94-6.87,5.79-10.36,2.39-4.46,4.63-9,6.83-13.51,4.4-9.08,8.46-18.32,12.44-27.59s7.9-18.59,12.21-27.71c1.08-2.28,2.16-4.55,3.27-6.82s2.23-4.52,3.47-6.72a74.76,74.76,0,0,1,4-6.46,48.42,48.42,0,0,1,4.87-6.06Z"/><path class="cls-5" d="M166.34,42.91c-4.53,2.35-5.06,6.61-5.38,11s.65,9.34.77,13.92a18.05,18.05,0,0,1-3.42,11.9,12,12,0,0,1-6.48,3.68,36.26,36.26,0,0,1-13.09.51l-3.84-1.84a36.08,36.08,0,0,1-7.81-10.51,12,12,0,0,1-1.2-7.35A18,18,0,0,1,133,54.05c3.64-2.77,8.07-5.17,11.32-8.12s6.18-6.08,5.16-11.08l1.74,2.91.75-2.1.76,3.66,2-2.34.43,2.42,1.68-1.95.31,3,1.17-1.4.07,2,2.17-1.89-.47,3,1.84-2.12.33,2.12L164.57,41l-1.36,2.44Z"/><path class="cls-5" d="M128.49,75.09h15.8a0,0,0,0,1,0,0v9.7a7.9,7.9,0,0,1-7.9,7.9h0a7.9,7.9,0,0,1-7.9-7.9v-9.7A0,0,0,0,1,128.49,75.09Z" transform="translate(49.55 -50.64) rotate(25.57)"/><rect x="129.46" y="80.82" width="15.8" height="2.06" transform="translate(48.77 -51.26) rotate(25.57)"/><path class="cls-6" d="M61.17,144.64c.69-10.73,6.44-18.27,30-15.46,24.42,2.91,49,.18,54.45-1.79,11.2-4,14.11,13-10.08,28.23S59.6,169.06,61.17,144.64Z"/></svg>